<svg xmlns="http://www.w3.org/2000/svg" width="1440" height="900" viewBox="0 0 1440 900">
  <defs>
    <linearGradient id="bg" x1="0" y1="0" x2="1" y2="1">
      <stop offset="0" stop-color="#06131b"/>
      <stop offset="0.45" stop-color="#0f6e9e"/>
      <stop offset="1" stop-color="#6fd7ff"/>
    </linearGradient>
    <linearGradient id="bill" x1="0" y1="0" x2="1" y2="1">
      <stop offset="0" stop-color="#dfffea"/>
      <stop offset="1" stop-color="#21b35a"/>
    </linearGradient>
    <filter id="shadow" x="-20%" y="-20%" width="140%" height="140%">
      <feDropShadow dx="0" dy="28" stdDeviation="22" flood-color="#000" flood-opacity="0.38"/>
    </filter>
  </defs>
  <rect width="1440" height="900" fill="url(#bg)"/>
  <circle cx="1180" cy="120" r="190" fill="#fff" opacity="0.12"/>
  <circle cx="190" cy="780" r="260" fill="#fff" opacity="0.10"/>
  <g opacity="0.25">
    <path d="M0 675 C260 590 420 760 720 680 S1190 530 1440 610 V900 H0Z" fill="#00121a"/>
    <path d="M0 125 C250 230 470 80 720 150 S1140 300 1440 190 V0 H0Z" fill="#ffffff"/>
  </g>
  <g filter="url(#shadow)" transform="translate(200 205) rotate(-8)">
    <rect x="0" y="0" width="430" height="220" rx="28" fill="url(#bill)" stroke="#eafff0" stroke-width="10"/>
    <circle cx="215" cy="110" r="58" fill="#eafff0" opacity="0.85"/>
    <text x="215" y="132" text-anchor="middle" font-family="Arial, Helvetica, sans-serif" font-size="70" font-weight="900" fill="#08793b">$</text>
    <text x="64" y="78" font-family="Arial, Helvetica, sans-serif" font-size="28" font-weight="900" fill="#08793b">SORTEOS</text>
    <text x="64" y="164" font-family="Arial, Helvetica, sans-serif" font-size="27" font-weight="900" fill="#08793b">EL YORCH</text>
  </g>
  <g filter="url(#shadow)" transform="translate(820 520) rotate(10)">
    <rect x="0" y="0" width="430" height="220" rx="28" fill="url(#bill)" stroke="#eafff0" stroke-width="10"/>
    <circle cx="215" cy="110" r="58" fill="#eafff0" opacity="0.85"/>
    <text x="215" y="132" text-anchor="middle" font-family="Arial, Helvetica, sans-serif" font-size="70" font-weight="900" fill="#08793b">$</text>
    <text x="64" y="78" font-family="Arial, Helvetica, sans-serif" font-size="28" font-weight="900" fill="#08793b">PREMIO</text>
    <text x="64" y="164" font-family="Arial, Helvetica, sans-serif" font-size="27" font-weight="900" fill="#08793b">TRANSFERENCIA</text>
  </g>
  <g filter="url(#shadow)">
    <circle cx="720" cy="430" r="255" fill="#02070a" opacity="0.92"/>
    <circle cx="720" cy="430" r="235" fill="none" stroke="#6fd7ff" stroke-width="18"/>
    <circle cx="720" cy="430" r="205" fill="none" stroke="#ffffff" stroke-opacity="0.35" stroke-width="4"/>
    <text x="720" y="322" text-anchor="middle" font-family="Arial, Helvetica, sans-serif" font-size="56" font-weight="900" fill="#6fd7ff">PREMIO</text>
    <text x="720" y="445" text-anchor="middle" font-family="Arial, Helvetica, sans-serif" font-size="150" font-weight="900" fill="#ffffff">$6,000</text>
    <text x="720" y="538" text-anchor="middle" font-family="Arial, Helvetica, sans-serif" font-size="58" font-weight="900" fill="#6fd7ff">PESOS</text>
    <text x="720" y="610" text-anchor="middle" font-family="Arial, Helvetica, sans-serif" font-size="30" font-weight="800" fill="#d9f7ff">PRIMER SORTEO</text>
  </g>
  <text x="720" y="815" text-anchor="middle" font-family="Arial, Helvetica, sans-serif" font-size="36" font-weight="900" fill="#06131b">APUESTA POCO, GANA MUCHO</text>
</svg>

